<?xml version="1.0" encoding="utf-8"?>
<!-- Generator: Adobe Illustrator 21.1.0, SVG Export Plug-In . SVG Version: 6.00 Build 0)  -->
<svg version="1.1" id="Layer_1" xmlns="http://www.w3.org/2000/svg" xmlns:xlink="http://www.w3.org/1999/xlink" x="0px" y="0px"
	 viewBox="0 0 1280 1894" style="enable-background:new 0 0 1280 1894;" xml:space="preserve">
<style type="text/css">
	.st0{fill:none;stroke:#302F28;stroke-width:10;stroke-miterlimit:10;}
	.st1{fill:#302F28;}
	.st2{fill:#302F28;stroke:#302F28;stroke-miterlimit:10;}
	.st3{fill:#302F28;stroke:#302F28;stroke-width:2;stroke-miterlimit:10;}
	.st4{fill:#302F28;stroke:#302F28;stroke-width:10;stroke-miterlimit:10;}
	.st5{fill:none;stroke:#302F28;stroke-width:11.4706;stroke-miterlimit:10;}
</style>
<path class="st0" d="M201.5,498.9c-1.1,0-2,0.9-2,2v552.2h0.5c10.6,234.5,204,421.3,441.1,421.3s430.5-186.9,441.1-421.3h0.5V500.9
	c0-1.1-0.9-2-2-2H201.5z"/>
<g>
	<path class="st0" d="M609.6,218.3c-147.4,14.6-264.5,132.1-278.6,279.6"/>
	<path class="st0" d="M950.3,498.9c-13.6-147.7-130.4-265.5-277.7-280.6"/>
</g>
<line class="st0" x1="641.1" y1="1543.8" x2="641.1" y2="448.7"/>
<line class="st0" x1="641.1" y1="1818.4" x2="641.1" y2="1693.8"/>
<line class="st0" x1="199.5" y1="986.7" x2="1082.7" y2="986.7"/>
<g>
	<path class="st1" d="M360.7,712l14.9,95.2h73l3.9-25.2c0,0,0-0.1,0-0.1l10.9-70H360.7z"/>
	<path class="st1" d="M478.1,740.1h-11l-6,38.5h9c4.9,0,9.8-4.2,10.6-9.1l3.7-21.6c0.4-2.2-0.1-4.2-1.3-5.6
		C481.9,740.9,480.1,740.1,478.1,740.1z"/>
	<path class="st1" d="M198.5,498.9v487.8H638V498.9H198.5z M432.1,626.4c1.4-1.7,3.9-1.9,5.6-0.5c1.7,1.4,1.9,3.9,0.5,5.6
		c-6.1,7.3-3,15.3,0.6,24.5c3.9,10.1,8.4,21.5-0.6,32.5c-0.8,1-1.9,1.4-3.1,1.4c-0.9,0-1.8-0.3-2.5-0.9c-1.7-1.4-1.9-3.9-0.5-5.6
		c6.1-7.3,3-15.3-0.6-24.5C427.6,648.8,423.1,637.3,432.1,626.4z M409,626.4c1.4-1.7,3.9-1.9,5.6-0.5c1.7,1.4,1.9,3.9,0.5,5.6
		c-6.1,7.3-3,15.3,0.6,24.5c3.9,10.1,8.4,21.5-0.6,32.5c-0.8,1-1.9,1.4-3.1,1.4c-0.9,0-1.8-0.3-2.5-0.9c-1.7-1.4-1.9-3.9-0.5-5.6
		c6.1-7.3,3-15.3-0.6-24.5C404.4,648.8,399.9,637.3,409,626.4z M384.2,626.4c1.4-1.7,3.9-1.9,5.6-0.5c1.7,1.4,1.9,3.9,0.5,5.6
		c-6.1,7.3-3,15.3,0.6,24.5c3.9,10.1,8.4,21.5-0.6,32.5c-0.8,1-1.9,1.4-3.1,1.4c-0.9,0-1.8-0.3-2.5-0.9c-1.7-1.4-1.9-3.9-0.5-5.6
		c6.1-7.3,3-15.3-0.6-24.5C379.6,648.8,375.2,637.3,384.2,626.4z M481.7,832.1H342.4c-2.2,0-4-1.8-4-4s1.8-4,4-4h139.3
		c2.2,0,4,1.8,4,4S483.9,832.1,481.7,832.1z M492.3,749.3l-3.7,21.6c-1.5,8.7-9.8,15.7-18.5,15.7h-10.2l-3.9,25.2
		c-0.3,1.9-2,3.4-3.9,3.4h-79.8c-2,0-3.6-1.4-3.9-3.4l-16.1-103.2c-0.2-1.1,0.2-2.3,0.9-3.2c0.8-0.9,1.9-1.4,3-1.4h112.1
		c1.2,0,2.3,0.5,3,1.4c0.8,0.9,1.1,2.1,0.9,3.2l-3.7,23.6h9.7c4.5,0,8.4,1.8,11.1,5C491.9,740.4,493,744.8,492.3,749.3z"/>
</g>
<path class="st0" d="M441.7,408.7h158.5l41.8,40l40.7-40h153.5c0.6,0,1-0.4,1-1v-38c0-0.6-0.4-1-1-1H441.7c-0.6,0-1,0.4-1,1v38
	C440.7,408.3,441.2,408.7,441.7,408.7z"/>
<line class="st0" x1="561.1" y1="408.7" x2="561.1" y2="498.9"/>
<line class="st0" x1="609.6" y1="183.7" x2="609.6" y2="372.1"/>
<line class="st0" x1="672.7" y1="173.6" x2="672.7" y2="372.1"/>
<line class="st0" x1="721.1" y1="408.7" x2="721.1" y2="498.9"/>
<path class="st0" d="M720.1,1691.8l1,36.3l-79.2,98c-0.4,0.5-1.2,0.5-1.6,0l-79.2-98l-1-36.3"/>
<line class="st0" x1="561.1" y1="1539.8" x2="560.1" y2="1471.2"/>
<line class="st0" x1="720.1" y1="1471.2" x2="721.1" y2="1539.8"/>
<path class="st1" d="M678.7,332.3l-71.4,26.3c-3.9,1.4-7.9-1.8-8.9-7.1v0c-1-5.3,1.3-10.8,5.2-12.2L675,313c3.9-1.4,7.9,1.8,8.9,7.1
	l0,0C684.9,325.3,682.6,330.9,678.7,332.3z M678.7,363.7c3.9-1.4,6.2-6.9,5.2-12.2l0,0c-1-5.3-5.1-8.5-8.9-7.1l-71.4,26.3
	L678.7,363.7z M683.9,287.9L683.9,287.9c-1-5.3-5.1-8.5-8.9-7.1l-71.4,26.3c-3.9,1.4-6.2,6.9-5.2,12.2v0c1,5.3,5.1,8.5,8.9,7.1
	l71.4-26.3C682.6,298.7,684.9,293.2,683.9,287.9z M683.9,254.6L683.9,254.6c-1-5.3-5.1-8.5-8.9-7.1l-71.4,26.3
	c-3.9,1.4-6.2,6.9-5.2,12.2v0c1,5.3,5.1,8.5,8.9,7.1l71.4-26.3C682.6,265.4,684.9,259.9,683.9,254.6z M683.9,221.8L683.9,221.8
	c-1-5.3-5.1-8.5-8.9-7.1L603.5,241c-3.9,1.4-6.2,6.9-5.2,12.2v0c1,5.3,5.1,8.5,8.9,7.1l71.4-26.3
	C682.6,232.7,684.9,227.1,683.9,221.8z M683.9,189.1L683.9,189.1c-1-5.3-5.1-8.5-8.9-7.1l-71.4,26.3c-3.9,1.4-6.2,6.9-5.2,12.2v0
	c1,5.3,5.1,8.5,8.9,7.1l71.4-26.3C682.6,199.9,684.9,194.4,683.9,189.1z M603.5,174.8c-3.9,1.4-6.2,6.9-5.2,12.2v0
	c1,5.3,5.1,8.5,8.9,7.1l22.5-8.3L603.5,174.8z"/>
<circle class="st0" cx="641.1" cy="125.7" r="59.9"/>
<circle class="st0" cx="641.1" cy="125.7" r="31.5"/>
<g>
	<path class="st2" d="M457.9,1256h58.6c4.8,0,8.7-3.9,8.7-8.7v-112.8c0-4.8-3.9-8.7-8.7-8.7H344.4c-4.8,0-8.7,3.9-8.7,8.7v112.8
		c0,4.8,3.9,8.7,8.7,8.7H403H457.9z M519.7,1247.3c0,1.7-1.4,3.2-3.2,3.2h-62.3c0,0,0,0,0,0H344.4c-1.7,0-3.2-1.4-3.2-3.2v-112.8
		c0-1.7,1.4-3.2,3.2-3.2h172.1c1.7,0,3.2,1.4,3.2,3.2V1247.3z"/>
	<path class="st2" d="M510.6,1137.7H350.3c-1.5,0-2.8,1.2-2.8,2.8v100.9c0,1.5,1.2,2.8,2.8,2.8h160.3c1.5,0,2.8-1.2,2.8-2.8v-100.9
		C513.4,1138.9,512.1,1137.7,510.6,1137.7z M507.8,1143.3v18.2H353.1v-18.2H507.8z M353.1,1238.6V1167h154.7v71.6H353.1z"/>
	<path class="st2" d="M391.9,1155.1h89c1.5,0,2.8-1.2,2.8-2.8s-1.2-2.8-2.8-2.8h-89c-1.5,0-2.8,1.2-2.8,2.8
		S390.3,1155.1,391.9,1155.1z"/>
	<path class="st2" d="M492.8,1155.1h5.9c1.5,0,2.8-1.2,2.8-2.8s-1.2-2.8-2.8-2.8h-5.9c-1.5,0-2.8,1.2-2.8,2.8
		S491.3,1155.1,492.8,1155.1z"/>
	<path class="st2" d="M362.2,1155.1c0.7,0,1.5-0.3,2-0.8c0.5-0.5,0.8-1.2,0.8-2c0-0.7-0.3-1.5-0.8-2c-0.5-0.5-1.2-0.8-2-0.8
		c-0.7,0-1.5,0.3-2,0.8c-0.5,0.5-0.8,1.2-0.8,2c0,0.7,0.3,1.5,0.8,2C360.8,1154.8,361.5,1155.1,362.2,1155.1z"/>
	<path class="st2" d="M371.1,1155.1c0.7,0,1.5-0.3,2-0.8c0.5-0.5,0.8-1.2,0.8-2c0-0.7-0.3-1.5-0.8-2c-0.5-0.5-1.2-0.8-2-0.8
		c-0.7,0-1.5,0.3-2,0.8c-0.5,0.5-0.8,1.2-0.8,2c0,0.7,0.3,1.5,0.8,2C369.7,1154.8,370.4,1155.1,371.1,1155.1z"/>
	<path class="st2" d="M380,1155.1c0.7,0,1.5-0.3,2-0.8c0.5-0.5,0.8-1.2,0.8-2c0-0.7-0.3-1.5-0.8-2c-0.5-0.5-1.2-0.8-2-0.8
		c-0.7,0-1.5,0.3-2,0.8c-0.5,0.5-0.8,1.2-0.8,2c0,0.7,0.3,1.5,0.8,2C378.6,1154.8,379.3,1155.1,380,1155.1z"/>
	<path class="st2" d="M373.1,1180.1c-1.1-1.1-2.8-1.1-3.9,0c-1.1,1.1-1.1,2.8,0,3.9l18.8,18.8l-18.8,18.8c-1.1,1.1-1.1,2.8,0,3.9
		c0.5,0.5,1.3,0.8,2,0.8s1.4-0.3,2-0.8l20.8-20.8c1.1-1.1,1.1-2.8,0-3.9L373.1,1180.1z"/>
	<path class="st2" d="M427.5,1220.8h-29.7c-1.5,0-2.8,1.2-2.8,2.8s1.2,2.8,2.8,2.8h29.7c1.5,0,2.8-1.2,2.8-2.8
		S429,1220.8,427.5,1220.8z"/>
</g>
<path class="st3" d="M495.4,1253.8"/>
<path class="st0" d="M261.7,1568.4c0,0.3,0.2,0.6,0.4,0.8c106.9,79.4,239.3,127.6,379.1,127.6s272.2-48.2,379.1-127.6
	c0.3-0.2,0.4-0.5,0.4-0.8v-150.5c0-0.8-0.9-1.3-1.6-0.8c-106.6,78.8-238.6,128.7-377.9,128.7s-271.2-49.9-377.9-128.7
	c-0.7-0.5-1.6,0-1.6,0.8V1568.4z"/>
<g>
	<path class="st1" d="M352,1573.2l21.8-44.6l28.7,14.1l-4.6,9.4l-18.8-9.2l-4.6,9.4l16.5,8.1l-4.4,9.1l-16.5-8.1l-8.2,16.7
		L352,1573.2z"/>
	<path class="st1" d="M420,1592.9c-3.9,4.9-10.9,7.4-19.1,4c-8.9-3.7-14.1-13.3-9.6-24.1c4.3-10.3,14.7-13.7,23.1-10.2
		c9.9,4.2,13.5,12.8,9.2,23.2c-0.6,1.4-1.3,2.8-1.5,3l-22.4-9.3c-1.3,3.7,0.9,7.7,4.7,9.2c3.6,1.5,6.3,0.6,8.2-1.5L420,1592.9z
		 M415.5,1578.5c0.9-2.5,0.5-6.2-4.2-8.1c-4.1-1.7-7.5,0.4-8.7,2.8L415.5,1578.5z"/>
	<path class="st1" d="M425.1,1605.5l16.3-48l9.9,3.4l-6.2,18.2c2.1-1.6,6.4-2.2,10.9-0.7c9.5,3.2,12.8,12.5,9.5,22.4
		c-3.4,10.1-12.4,15.1-21.6,12c-4.4-1.5-7.1-4.6-7.8-7.6l-1.3,3.7L425.1,1605.5z M450.7,1586.7c-3.9-1.3-8.4,0-10.3,5.6
		c-1.8,5.4,0.8,9.4,4.7,10.8c3.9,1.3,8.3-0.2,10.2-5.7C457.2,1591.8,454.6,1588,450.7,1586.7z"/>
	<path class="st1" d="M495.9,1602c-1.1-0.6-2.1-0.9-3.1-1.2c-4.1-1.1-8.5,0.3-10.3,7l-4,14.6l-10.3-2.8l9.2-33.5l9.9,2.7l-1.2,4.5
		c2.8-3.3,7.3-3.2,10-2.5c1,0.3,2,0.7,2.6,1.1L495.9,1602z"/>
	<path class="st1" d="M519.6,1628.6c-2.4,2.6-6.6,3-10,2.2c-8.3-1.8-11.7-8.8-10.1-16l4.6-21.5l10.4,2.2l-4.1,19.3
		c-0.7,3.3,0.5,6.3,4.2,7.1c3.5,0.7,6.2-1.2,6.9-4.6l4.1-19.4l10.4,2.2l-6,27.9c-0.7,3.1-0.9,5.6-1,6.2l-10-2.1
		C519.1,1631.5,519.4,1629.5,519.6,1628.6z"/>
	<path class="st1" d="M551,1617.4l8.3-0.1c1.9,0,2.7-0.8,2.8-2c0.3-2-1.2-4-4.5-4.5c-3.7-0.5-6,1.7-6.6,4.2l-8.9-3.2
		c1.1-4.9,6.6-10.7,16.7-9.3c11.2,1.6,14.4,8.4,13.3,15.5l-2.4,16.8c-0.4,2.7-0.4,5-0.3,5.4l-9.5-1.4c0-0.3-0.1-1.6,0.2-3.9
		c-2.2,2.7-5.8,4.1-10.4,3.5c-7.6-1.1-11.2-6.7-10.4-12.2C540.2,1620.2,545.2,1617.4,551,1617.4z M560.7,1625.3l0.2-1.5l-6.7,0.1
		c-2.3,0-4.1,0.8-4.4,3.3c-0.3,1.8,0.7,3.7,3.6,4.1C556.5,1631.7,560,1630.6,560.7,1625.3z"/>
	<path class="st1" d="M603.8,1619c-1.2-0.4-2.3-0.5-3.3-0.6c-4.3-0.4-8.3,1.8-8.9,8.7l-1.3,15.1l-10.6-0.9l3-34.7l10.3,0.9l-0.4,4.7
		c2.1-3.8,6.6-4.5,9.4-4.2c1,0.1,2.1,0.3,2.8,0.6L603.8,1619z"/>
	<path class="st1" d="M613.9,1657.3l8.3-17.9l-13.9-30.4l11.9,0.3l8,18.8l8.1-18.4l11.3,0.3l-22.5,47.7L613.9,1657.3z"/>
	<path class="st1" d="M668.5,1616.6c-0.3-0.5-0.6-2.3-0.7-3.7c-0.6-8.1,4.9-15.8,15.8-16.6c10.4-0.8,17.3,5.5,17.9,13.6
		c0.4,5.9-2.3,10.9-7.9,14.8l-8.2,5.7c-1.3,0.9-2.3,1.9-2.8,3.3l20.9-1.6l0.7,9.2l-34.4,2.6c-0.6-8.3,1.2-15.3,9.2-20.8l7.1-4.9
		c3.4-2.4,4.7-4.4,4.4-7.4c-0.2-2.9-2.4-5.2-6.5-4.9c-4.3,0.3-6.1,3.4-5.8,7.2c0.1,0.9,0.3,1.9,0.6,2.8L668.5,1616.6z"/>
	<path class="st1" d="M708.8,1624.3l-1.3-9.5l20.8-2.8l1.3,9.5L708.8,1624.3z"/>
	<path class="st1" d="M740.5,1608.9l9.3-11.1l-18.6,3.5l-1.7-9.1l32.2-6.1l1.6,8.4l-9.4,10.6c7-0.8,13.6,3.6,15.1,11.3
		c1.5,7.9-3.7,16.3-14.7,18.4c-10.4,2-18.2-3.5-20.4-11l10.1-3.9c0.9,3.9,4.3,6.5,8.5,5.7c4.2-0.8,6.1-4.1,5.5-7.4
		c-0.8-4.3-4.4-5.4-7.6-4.8c-1.4,0.3-2.9,1-3.8,1.8L740.5,1608.9z"/>
	<path class="st1" d="M788.2,1598.5c-0.4-0.5-1.1-2.2-1.4-3.5c-2.2-7.8,1.6-16.5,12.1-19.5c10-2.9,18.1,1.9,20.3,9.7
		c1.6,5.7-0.1,11.2-4.7,16.1l-6.9,7.3c-1,1.2-1.9,2.4-2.1,3.8l20.2-5.8l2.5,8.9L795,1625c-2.3-8-1.9-15.3,4.8-22.2l5.9-6.2
		c2.9-3,3.7-5.2,2.8-8.1c-0.8-2.8-3.4-4.6-7.3-3.5c-4.1,1.2-5.3,4.6-4.3,8.2c0.3,0.9,0.7,1.8,1.2,2.6L788.2,1598.5z"/>
	<path class="st1" d="M825,1575.8c1.3-5.3,4.9-10,11.8-12.5c7-2.5,12.8-1.2,17.2,2c4.6,3.4,7.3,8.5,9.2,13.7s3,10.9,1.7,16.4
		c-1.3,5.2-4.9,10-11.9,12.6c-6.9,2.5-12.8,1.1-17.1-2.1c-4.6-3.4-7.3-8.5-9.2-13.7S823.7,1581.3,825,1575.8z M842.1,1597.1
		c2,1.9,4.5,2.8,7.7,1.7c3.2-1.2,4.5-3.4,4.8-6.2c0.3-3-0.5-6.5-1.7-9.9c-1.2-3.4-2.8-6.6-5-8.7c-2-1.9-4.5-2.9-7.7-1.7
		c-3.2,1.1-4.5,3.4-4.8,6.2c-0.3,2.9,0.5,6.4,1.8,9.9C838.4,1591.8,840,1595.1,842.1,1597.1z"/>
	<path class="st1" d="M886.2,1593.8l-11.6-27.2l-10,4.3l-2.9-6.8c6.2-2.7,9.1-8.2,8-12.7l8.7-3.7l17.9,41.8L886.2,1593.8z"/>
	<path class="st1" d="M900.1,1574.3c-2.1-4.2-1.5-9.5,2-13.3c-4.9,0.6-9-2.6-10.6-5.8c-3.4-6.8,0.3-14.8,9-19.2
		c8.8-4.4,17.4-2.5,20.8,4.3c1.6,3.2,1.7,8.4-1.8,12c5.1-0.4,9.8,2.2,11.9,6.4c3.6,7.1-0.5,15.2-9.8,19.8
		C912.6,1583.1,903.7,1581.4,900.1,1574.3z M912,1545.9c-1.1-2.1-4-3.5-7.4-1.8c-3.4,1.7-4.1,4.8-3,7c1.2,2.4,4,3.9,7.6,2.2
		C912.7,1551.4,913.2,1548.3,912,1545.9z M921.3,1562.3c-1.2-2.5-4.5-4.3-8.7-2.2c-4.1,2.1-4.7,5.7-3.4,8.2c1.2,2.4,4.6,4,8.5,2.1
		C921.8,1568.4,922.5,1564.8,921.3,1562.3z"/>
</g>
<path class="st0" d="M1020.2,1568.4v-33.6c61.7-22.2,119.5-53.7,171.3-92c0.7-0.5,1.6,0,1.6,0.8l-63,120.1l63,30.4
	c0,0.3-0.2,0.6-0.4,0.8c-87.1,64.7-203.2,110.7-314.4,124.7c-1.1,0.1,10.4-3.4,11.4-3.9C1008.7,1658.2,1020.2,1568.4,1020.2,1568.4z
	"/>
<path class="st4" d="M875.2,1718.5c0,0.7,0.7,1.2,1.4,0.9c9.9-4.2,56.1-22.7,91.1-57.7c41-41,47.7-80,51-89.7
	c0.2-0.6-0.3-1.3-0.9-1.3c0,0-53.4,36.6-72.2,47.1c-17,9.4-70.4,32.9-70.4,32.9V1718.5z"/>
<path class="st0" d="M261.1,1568.4v-33.6c-61.7-22.2-119.5-53.7-171.3-92c-0.7-0.5-1.6,0-1.6,0.8l63,120.1l-63,30.4
	c0,0.3,0.2,0.6,0.4,0.8c87.1,64.7,203.2,110.7,314.4,124.7c1.1,0.1-10.4-3.4-11.4-3.9C272.7,1658.2,261.1,1568.4,261.1,1568.4z"/>
<path class="st4" d="M406.1,1718.5c0,0.7-0.7,1.2-1.4,0.9c-9.9-4.2-56.1-22.7-91.1-57.7c-41-41-47.7-80-51-89.7
	c-0.2-0.6,0.3-1.3,0.9-1.3c0,0,53.4,36.6,72.2,47.1c17,9.4,70.4,32.9,70.4,32.9V1718.5z"/>
<g>
	<path class="st1" d="M855.1,1131.1c-22.1,1-39.9,19.5-40.2,41.2c-0.3,10.1,3.2,19.8,9.7,27.6c9.7,12,14.6,26,13.3,39.9h37.7
		c-1-14.6,3.6-28.9,13-39.3c6.8-7.5,10.4-17.5,10.4-27.6C898.9,1149.3,879.1,1130.1,855.1,1131.1z"/>
	<path class="st1" d="M642,988.3v487.8c237.1,0,430.5-186.9,441.1-421.3h0.5v-66.4H642z M905.5,1120.2l12.9-12.9
		c1.8-1.8,4.4-1.8,6.1,0c1.8,1.8,1.8,4.4,0,6.1l-12.9,12.9c-0.9,0.9-2,1.3-3.1,1.3c-1.1,0-2.2-0.4-3.1-1.3
		C903.7,1124.6,903.7,1122,905.5,1120.2z M853.3,1083.9c0-2.4,2-4.4,4.4-4.4c2.4,0,4.4,2,4.4,4.4v18.2c0,2.4-2,4.4-4.4,4.4
		c-2.4,0-4.4-2-4.4-4.4V1083.9z M790.8,1107.3c1.8-1.8,4.4-1.8,6.1,0l12.9,12.9c1.8,1.8,1.8,4.4,0,6.1c-0.9,0.9-2,1.3-3.1,1.3
		c-1.1,0-2.2-0.4-3.1-1.3l-12.9-12.9C789,1111.7,789,1109.1,790.8,1107.3z M785.8,1178.6h-18.2c-2.4,0-4.4-2-4.4-4.4
		c0-2.4,2-4.4,4.4-4.4h18.2c2.4,0,4.4,2,4.4,4.4C790.1,1176.6,788.2,1178.6,785.8,1178.6z M809.9,1228.1l-12.9,12.9
		c-0.9,0.9-2,1.3-3.1,1.3c-1.1,0-2.2-0.4-3.1-1.3c-1.8-1.8-1.8-4.4,0-6.1l12.9-12.9c1.5-1.8,4.4-1.8,6.1,0
		C811.6,1223.7,811.6,1226.4,809.9,1228.1z M870.7,1280.4h-29.2c-1.9,0-3.2-1.3-3.2-3.2c0-1.9,1.3-3.2,3.2-3.2h29.2
		c1.9,0,3.2,1.3,3.2,3.2C873.9,1279.1,872.6,1280.4,870.7,1280.4z M877.2,1269H835c-1.9,0-3.2-1.3-3.2-3.2s1.3-3.2,3.2-3.2h42.2
		c1.9,0,3.2,1.3,3.2,3.2S879.1,1269,877.2,1269z M877.2,1257.7H835c-1.9,0-3.2-1.3-3.2-3.2s1.3-3.2,3.2-3.2h42.2
		c1.9,0,3.2,1.3,3.2,3.2S879.1,1257.7,877.2,1257.7z M882.7,1242.4c0,1.9-1.3,3.6-3.2,3.6h-45.1c-2.3,0-3.2-1.6-3.2-3.6l0.3-1.6
		c1.6-12.7-2.6-26-11.7-36.7c-7.5-8.8-11.7-20.1-11.4-31.8c0.3-25.3,21.1-46.7,46.4-47.7c27.6-1.3,50.3,21.1,50.3,48.4
		c0,12-4.2,23-11.7,31.8C884.7,1214.8,880.8,1228.5,882.7,1242.4z M924.5,1241.1c-0.9,0.9-2,1.3-3.1,1.3s-2.2-0.4-3.1-1.3
		l-12.9-12.9c-1.8-1.8-1.8-4.4,0-6.1c1.8-1.8,4.4-1.8,6.1,0l12.9,12.9C926.3,1236.7,926.3,1239.3,924.5,1241.1z M948,1178.6h-18.2
		c-2.4,0-4.4-2-4.4-4.4c0-2.4,2-4.4,4.4-4.4H948c2.4,0,4.4,2,4.4,4.4C952.4,1176.6,950.4,1178.6,948,1178.6z"/>
</g>
<g>
	<path class="st1" d="M276.4,451.4c-0.6,2.7-3.7,4.3-6.9,3.6l-60.3-12.8c-3.2-0.7-5.4-3.4-4.8-6.1s3.7-4.3,6.9-3.6l60.3,12.8
		C274.8,445.9,276.9,448.7,276.4,451.4z"/>
</g>
<g>
	<path class="st1" d="M300.5,377.2c-1.1,2.5-4.5,3.5-7.5,2.1l-56.3-25.1c-3-1.3-4.6-4.5-3.4-7c1.1-2.5,4.5-3.5,7.5-2.1l56.3,25.1
		C300,371.6,301.6,374.7,300.5,377.2z"/>
</g>
<g>
	<path class="st1" d="M339.4,309.7c-1.6,2.2-5.1,2.5-7.8,0.5L281.8,274c-2.7-1.9-3.5-5.3-1.9-7.6c1.6-2.2,5.1-2.5,7.8-0.5l49.8,36.2
		C340.2,304.1,341.1,307.5,339.4,309.7z"/>
</g>
<g>
	<path class="st1" d="M391.6,251.8c-2,1.8-5.5,1.3-7.7-1.1l-41.2-45.8c-2.2-2.5-2.3-6-0.3-7.8c2-1.8,5.5-1.3,7.7,1.1l41.2,45.8
		C393.5,246.4,393.6,249.9,391.6,251.8z"/>
</g>
<g>
	<path class="st1" d="M454.7,206c-2.4,1.4-5.7,0.2-7.3-2.7l-30.8-53.3c-1.6-2.9-1.1-6.3,1.3-7.7s5.7-0.2,7.3,2.7l30.8,53.3
		C457.7,201.1,457.1,204.6,454.7,206z"/>
</g>
<g>
	<path class="st1" d="M525.9,174.3c-2.6,0.8-5.6-1-6.6-4.2l-19-58.6c-1-3.1,0.3-6.4,2.9-7.3c2.6-0.8,5.6,1,6.6,4.2l19,58.6
		C529.8,170.1,528.5,173.4,525.9,174.3z"/>
</g>
<g>
	<path class="st1" d="M756.4,174.3c-2.6-0.8-3.9-4.1-2.9-7.3l19-58.6c1-3.1,4-5,6.6-4.2c2.6,0.8,3.9,4.1,2.9,7.3l-19,58.6
		C762,173.2,759,175.1,756.4,174.3z"/>
</g>
<g>
	<path class="st1" d="M827.6,206c-2.4-1.4-3-4.8-1.3-7.7l30.8-53.3c1.7-2.9,4.9-4.1,7.3-2.7c2.4,1.4,3,4.8,1.3,7.7l-30.8,53.3
		C833.3,206.1,830,207.3,827.6,206z"/>
</g>
<g>
	<path class="st1" d="M890.7,251.8c-2-1.8-1.9-5.4,0.3-7.8l41.2-45.8c2.2-2.5,5.7-3,7.7-1.1c2,1.8,1.9,5.4-0.3,7.8l-41.2,45.8
		C896.2,253.1,892.7,253.6,890.7,251.8z"/>
</g>
<g>
	<path class="st1" d="M942.8,309.7c-1.6-2.2-0.8-5.6,1.9-7.6l49.8-36.2c2.7-1.9,6.2-1.7,7.8,0.5c1.6,2.2,0.8,5.6-1.9,7.6l-49.8,36.2
		C948,312.2,944.4,311.9,942.8,309.7z"/>
</g>
<g>
	<path class="st1" d="M981.8,377.2c-1.1-2.5,0.4-5.7,3.4-7l56.3-25.1c3-1.3,6.4-0.4,7.5,2.1s-0.4,5.7-3.4,7l-56.3,25.1
		C986.3,380.7,982.9,379.7,981.8,377.2z"/>
</g>
<g>
	<path class="st1" d="M1005.9,451.4c-0.6-2.7,1.6-5.5,4.8-6.1l60.3-12.8c3.2-0.7,6.3,1,6.9,3.6c0.6,2.7-1.6,5.5-4.8,6.1l-60.3,12.8
		C1009.6,455.7,1006.5,454.1,1005.9,451.4z"/>
</g>
<path class="st5" d="M720.1,1520.1"/>
<g>
	<g>
		<path class="st1" d="M760.5,734.6c7.4,0,13.7-3.4,13.7-12.5v-18.2c0-16.6,9-24.7,24.3-24.7h3v11.6h-2.9c-7.8,0-11.7,3.6-11.7,12.6
			V725c0,8.5-4.9,14.3-13.3,16.1c8.3,2,13.3,7.8,13.3,16.2V779c0,9,3.9,12.5,11.7,12.5h2.9V803h-3c-15.3,0-24.3-8.1-24.3-24.7v-18.1
			c0-9.2-6.2-12.6-13.7-12.6V734.6z"/>
		<path class="st1" d="M822.2,784.2c-5.2,0-9.5-4.3-9.5-9.5c0-5.3,4.3-9.6,9.5-9.6c5.3,0,9.6,4.3,9.6,9.6
			C831.8,779.9,827.5,784.2,822.2,784.2z M862.2,784.2c-5.3,0-9.6-4.3-9.6-9.5c0-5.3,4.3-9.6,9.6-9.6s9.5,4.3,9.5,9.6
			C871.7,779.9,867.6,784.2,862.2,784.2z M902.3,784.2c-5.3,0-9.6-4.3-9.6-9.5c0-5.3,4.3-9.6,9.6-9.6s9.5,4.3,9.5,9.6
			C911.8,779.9,907.6,784.2,902.3,784.2z"/>
		<path class="st1" d="M964,747.6c-7.4,0-13.7,3.4-13.7,12.6v18.1c0,16.6-9,24.7-24.3,24.7h-3v-11.6h2.9c7.8,0,11.7-3.5,11.7-12.5
			v-21.6c0-8.5,4.9-14.3,13.3-16.2c-8.3-1.8-13.3-7.7-13.3-16.1v-21.6c0-9-3.9-12.6-11.7-12.6h-2.9v-11.6h3
			c15.3,0,24.3,8.1,24.3,24.7v18.2c0,9.1,6.2,12.5,13.7,12.5V747.6z"/>
	</g>
	<g>
		<path class="st1" d="M760.5,734.6c7.4,0,13.7-3.4,13.7-12.5v-18.2c0-16.6,9-24.7,24.3-24.7h3v11.6h-2.9c-7.8,0-11.7,3.6-11.7,12.6
			V725c0,8.5-4.9,14.3-13.3,16.1c8.3,2,13.3,7.8,13.3,16.2V779c0,9,3.9,12.5,11.7,12.5h2.9V803h-3c-15.3,0-24.3-8.1-24.3-24.7v-18.1
			c0-9.2-6.2-12.6-13.7-12.6V734.6z"/>
		<path class="st1" d="M822.2,784.2c-5.2,0-9.5-4.3-9.5-9.5c0-5.3,4.3-9.6,9.5-9.6c5.3,0,9.6,4.3,9.6,9.6
			C831.8,779.9,827.5,784.2,822.2,784.2z M862.2,784.2c-5.3,0-9.6-4.3-9.6-9.5c0-5.3,4.3-9.6,9.6-9.6s9.5,4.3,9.5,9.6
			C871.7,779.9,867.6,784.2,862.2,784.2z M902.3,784.2c-5.3,0-9.6-4.3-9.6-9.5c0-5.3,4.3-9.6,9.6-9.6s9.5,4.3,9.5,9.6
			C911.8,779.9,907.6,784.2,902.3,784.2z"/>
		<path class="st1" d="M964,747.6c-7.4,0-13.7,3.4-13.7,12.6v18.1c0,16.6-9,24.7-24.3,24.7h-3v-11.6h2.9c7.8,0,11.7-3.5,11.7-12.5
			v-21.6c0-8.5,4.9-14.3,13.3-16.2c-8.3-1.8-13.3-7.7-13.3-16.1v-21.6c0-9-3.9-12.6-11.7-12.6h-2.9v-11.6h3
			c15.3,0,24.3,8.1,24.3,24.7v18.2c0,9.1,6.2,12.5,13.7,12.5V747.6z"/>
	</g>
</g>
</svg>
