<?xml version="1.0" encoding="utf-8"?>
<!-- Generator: Adobe Illustrator 21.1.0, SVG Export Plug-In . SVG Version: 6.00 Build 0)  -->
<svg version="1.1" id="Layer_1" xmlns="http://www.w3.org/2000/svg" xmlns:xlink="http://www.w3.org/1999/xlink" x="0px" y="0px"
	 viewBox="0 0 1280 258" style="enable-background:new 0 0 1280 258;" xml:space="preserve">
<style type="text/css">
	.st0{fill:#2F3028;}
	.st1{fill:#302F28;}
</style>
<g>
	<path class="st0" d="M131.4,126.4V91.6H96.5v34.8H77V38.9h19.5v34.3h34.9V38.9H151v87.5H131.4z"/>
	<path class="st0" d="M222.3,108.6h-33.8l-6.3,17.8h-20.5l33-87.5h22.6l32.6,87.5h-21.2L222.3,108.6z M194.8,90.8h21.2l-10.5-30.2
		L194.8,90.8z"/>
	<path class="st0" d="M250.6,82.8c0-27.3,20.7-45.8,45.2-45.8c26.3,0,37.9,16.9,40.7,29.5l-18.4,5.8c-1.4-6-6.9-16.3-22.3-16.3
		c-11.7,0-24.9,8.4-24.9,26.8c0,16.4,12.1,25.9,25.2,25.9c15.2,0,21.2-10.1,23-16.4l18.6,5.3c-2.8,12.1-14.4,30.6-41.6,30.6
		C270.9,128.2,250.6,110.1,250.6,82.8z"/>
	<path class="st0" d="M380.4,91.9l-9.9,11v23.5H351V38.9h19.5v36.8l32-36.8h25.7l-34.1,37.9l34.2,49.6H404L380.4,91.9z"/>
	<path class="st0" d="M508.7,57.5v68.9h-19.5V57.5h-26.9V38.9h73.5v18.6H508.7z"/>
	<path class="st0" d="M602,126.4V91.6H567v34.8h-19.5V38.9H567v34.3H602V38.9h19.6v87.5H602z"/>
	<path class="st0" d="M640.5,126.4V38.9h55.4v18.4H660v16.7h32.6v17.2H660v16.8h36v18.5H640.5z"/>
	<path class="st0" d="M737.8,82.8c0-27.3,20.7-45.8,45.2-45.8c26.3,0,37.9,16.9,40.7,29.5l-18.4,5.8c-1.4-6-6.9-16.3-22.3-16.3
		c-11.7,0-24.9,8.4-24.9,26.8c0,16.4,12.1,25.9,25.2,25.9c15.2,0,21.2-10.1,23-16.4l18.6,5.3c-2.8,12.1-14.4,30.6-41.6,30.6
		C758,128.2,737.8,110.1,737.8,82.8z"/>
	<path class="st0" d="M886.3,108.6h-33.8l-6.3,17.8h-20.5l33-87.5h22.6l32.6,87.5h-21.2L886.3,108.6z M858.9,90.8h21.2l-10.5-30.2
		L858.9,90.8z"/>
	<path class="st0" d="M967.1,65.3c-0.6-4.1-4-11-14.6-11c-7.3,0-12,4.6-12,9.4c0,4.2,2.6,7.3,8.6,8.4l11.7,2.2
		c16.7,3.1,25.3,13.8,25.3,26.3c0,13.7-11.5,27.7-32.3,27.7c-24.2,0-34.6-15.7-35.8-28l17.9-4.3c0.7,8,6.2,15.1,18.1,15.1
		c7.7,0,12.3-3.7,12.3-9.1c0-4.4-3.6-7.7-9.4-8.8l-12-2.2c-14.8-2.8-23.8-12.7-23.8-25.7c0-16.5,14.6-28.1,31.4-28.1
		c21.9,0,30.1,13.1,32,23.3L967.1,65.3z"/>
	<path class="st0" d="M1038.7,57.5v68.9h-19.5V57.5h-26.9V38.9h73.5v18.6H1038.7z"/>
	<path class="st0" d="M1077.6,126.4V38.9h19.5v68.9h37.8v18.6H1077.6z"/>
	<path class="st0" d="M1147.5,126.4V38.9h55.4v18.4H1167v16.7h32.6v17.2H1167v16.8h36v18.5H1147.5z"/>
</g>
<g>
	<g>
		<path class="st0" d="M327.3,203.4h-16.7l-3.4,9.4h-8.4l15.7-41h9.3l15.6,41h-8.7L327.3,203.4z M313.3,196.1h11.3l-5.7-15.5
			L313.3,196.1z"/>
		<path class="st0" d="M362.5,203.4c0.2,2.3,1.9,4.3,5.2,4.3c2.5,0,3.8-1.3,3.8-2.8c0-1.3-0.9-2.3-3.1-2.8l-3.8-0.9
			c-5.5-1.2-8-4.5-8-8.5c0-5.1,4.5-9.3,10.6-9.3c8.1,0,10.8,5.1,11.2,8.2l-6.4,1.4c-0.2-1.7-1.4-3.8-4.7-3.8c-2,0-3.6,1.2-3.6,2.8
			c0,1.4,1,2.3,2.6,2.5l4.1,0.9c5.6,1.2,8.4,4.6,8.4,8.7c0,4.6-3.6,9.4-11.1,9.4c-8.6,0-11.5-5.6-11.9-8.8L362.5,203.4z"/>
		<path class="st0" d="M412.6,198.6c0,8.7-6.4,15.1-14.9,15.1c-8.5,0-14.9-6.4-14.9-15.1c0-8.8,6.4-15.1,14.9-15.1
			C406.2,183.5,412.6,189.8,412.6,198.6z M404.9,198.6c0-5.4-3.5-8.1-7.2-8.1c-3.8,0-7.2,2.7-7.2,8.1c0,5.3,3.5,8.1,7.2,8.1
			C401.4,206.7,404.9,204,404.9,198.6z"/>
		<path class="st0" d="M424.2,198.6c0,5.1,3.4,8,7.3,8c3.9,0,5.9-2.6,6.5-4.8l6.8,2.3c-1.3,4.7-5.7,9.6-13.3,9.6
			c-8.4,0-15-6.4-15-15.1c0-8.8,6.5-15.1,14.8-15.1c7.8,0,12.2,4.8,13.4,9.6l-6.9,2.3c-0.7-2.4-2.5-4.8-6.3-4.8
			C427.5,190.6,424.2,193.4,424.2,198.6z"/>
		<path class="st0" d="M454.3,170.2c2.7,0,4.7,2.1,4.7,4.8c0,2.5-2.1,4.7-4.7,4.7c-2.6,0-4.7-2.1-4.7-4.7
			C449.6,172.4,451.7,170.2,454.3,170.2z M450.5,212.8v-28.5h7.7v28.5H450.5z"/>
		<path class="st0" d="M473.2,196.4l7-1c1.6-0.2,2.1-1,2.1-2c0-2-1.6-3.7-4.8-3.7c-3.4,0-5.2,2.1-5.4,4.6l-6.8-1.4
			c0.5-4.5,4.6-9.4,12.2-9.4c9,0,12.4,5.1,12.4,10.8v14c0,1.5,0.2,3.5,0.3,4.5h-7.1c-0.2-0.8-0.3-2.3-0.3-3.4
			c-1.4,2.3-4.2,4.2-8.4,4.2c-6.1,0-9.8-4.1-9.8-8.6C464.7,200,468.5,197.1,473.2,196.4z M482.3,201.3V200l-6.4,1
			c-2,0.3-3.5,1.4-3.5,3.6c0,1.7,1.2,3.3,3.7,3.3C479.3,207.9,482.3,206.3,482.3,201.3z"/>
		<path class="st0" d="M497.6,212.8v-41.9h7.7v41.9H497.6z"/>
		<path class="st0" d="M527.8,212.8v-28.5h7.3v3.5c1.6-2.8,5.2-4.3,8.3-4.3c3.9,0,7,1.7,8.4,4.7c2.3-3.5,5.3-4.7,9-4.7
			c5.3,0,10.3,3.2,10.3,10.8v18.5h-7.5v-16.9c0-3.1-1.5-5.4-5-5.4c-3.3,0-5.3,2.5-5.3,5.6v16.7h-7.6v-16.9c0-3.1-1.6-5.4-5-5.4
			c-3.4,0-5.3,2.5-5.3,5.6v16.7H527.8z"/>
		<path class="st0" d="M604.6,204.6c-1.4,4.9-6,9-13,9c-7.8,0-14.7-5.6-14.7-15.2c0-9.1,6.7-15,14-15c8.8,0,14.1,5.6,14.1,14.8
			c0,1.1-0.1,2.3-0.1,2.4h-20.4c0.2,3.8,3.4,6.5,7.2,6.5c3.6,0,5.6-1.8,6.5-4.3L604.6,204.6z M597.4,195.3c-0.1-2.8-2-5.6-6.4-5.6
			c-4,0-6.2,3-6.4,5.6H597.4z"/>
		<path class="st0" d="M638.2,207.7c0,1.9,0.1,4,0.2,5.1h-7.3c-0.1-0.6-0.3-2-0.3-3.3c-1.3,2.3-4.2,4-8,4c-8.1,0-13.9-6.4-13.9-15
			c0-8.3,5.6-14.9,13.7-14.9c4.9,0,7.2,2,8,3.5v-16.3h7.6V207.7z M623.8,206.6c3.9,0,7-3,7-8.2c0-5.1-3.1-7.9-7-7.9s-7.1,2.9-7.1,8
			S619.7,206.6,623.8,206.6z"/>
		<path class="st0" d="M650.4,170.2c2.7,0,4.7,2.1,4.7,4.8c0,2.5-2.1,4.7-4.7,4.7c-2.6,0-4.7-2.1-4.7-4.7
			C645.6,172.4,647.8,170.2,650.4,170.2z M646.6,212.8v-28.5h7.7v28.5H646.6z"/>
		<path class="st0" d="M669.3,196.4l7-1c1.6-0.2,2.1-1,2.1-2c0-2-1.6-3.7-4.8-3.7c-3.4,0-5.2,2.1-5.4,4.6l-6.8-1.4
			c0.5-4.5,4.6-9.4,12.2-9.4c9,0,12.4,5.1,12.4,10.8v14c0,1.5,0.2,3.5,0.3,4.5h-7.1c-0.2-0.8-0.3-2.3-0.3-3.4
			c-1.4,2.3-4.2,4.2-8.4,4.2c-6.1,0-9.8-4.1-9.8-8.6C660.7,200,664.5,197.1,669.3,196.4z M678.4,201.3V200l-6.4,1
			c-2,0.3-3.5,1.4-3.5,3.6c0,1.7,1.2,3.3,3.7,3.3C675.4,207.9,678.4,206.3,678.4,201.3z"/>
		<path class="st0" d="M715.7,212.8H708v-41.9h7.7v15.8c1.9-2.2,5-3.1,7.7-3.1c7.2,0,10.6,5,10.6,11.3v17.9h-7.7v-16.6
			c0-3.2-1.6-5.7-5.3-5.7c-3.2,0-5.1,2.4-5.3,5.6V212.8z"/>
		<path class="st0" d="M748.5,196.4l7-1c1.6-0.2,2.1-1,2.1-2c0-2-1.6-3.7-4.8-3.7c-3.4,0-5.2,2.1-5.4,4.6l-6.8-1.4
			c0.5-4.5,4.6-9.4,12.2-9.4c9,0,12.4,5.1,12.4,10.8v14c0,1.5,0.2,3.5,0.3,4.5h-7.1c-0.2-0.8-0.3-2.3-0.3-3.4
			c-1.4,2.3-4.2,4.2-8.4,4.2c-6.1,0-9.8-4.1-9.8-8.6C740,200,743.8,197.1,748.5,196.4z M757.7,201.3V200l-6.4,1
			c-2,0.3-3.5,1.4-3.5,3.6c0,1.7,1.2,3.3,3.7,3.3C754.7,207.9,757.7,206.3,757.7,201.3z"/>
		<path class="st0" d="M778.4,198.6c0,5.1,3.4,8,7.3,8c3.9,0,5.9-2.6,6.5-4.8l6.8,2.3c-1.3,4.7-5.7,9.6-13.3,9.6
			c-8.4,0-15-6.4-15-15.1c0-8.8,6.5-15.1,14.8-15.1c7.8,0,12.2,4.8,13.4,9.6l-6.9,2.3c-0.7-2.4-2.5-4.8-6.3-4.8
			C781.7,190.6,778.4,193.4,778.4,198.6z"/>
		<path class="st0" d="M820.9,196.3l11.6,16.5h-9.4l-7.5-10.9l-3.2,3.4v7.5h-7.7v-41.9h7.7v24l9.8-10.6h10.1L820.9,196.3z"/>
		<path class="st0" d="M843.1,196.4l7-1c1.6-0.2,2.1-1,2.1-2c0-2-1.6-3.7-4.8-3.7c-3.4,0-5.2,2.1-5.4,4.6l-6.8-1.4
			c0.5-4.5,4.6-9.4,12.2-9.4c9,0,12.4,5.1,12.4,10.8v14c0,1.5,0.2,3.5,0.3,4.5H853c-0.2-0.8-0.3-2.3-0.3-3.4
			c-1.4,2.3-4.2,4.2-8.4,4.2c-6.1,0-9.8-4.1-9.8-8.6C834.6,200,838.3,197.1,843.1,196.4z M852.2,201.3V200l-6.4,1
			c-2,0.3-3.5,1.4-3.5,3.6c0,1.7,1.2,3.3,3.7,3.3C849.2,207.9,852.2,206.3,852.2,201.3z"/>
		<path class="st0" d="M876.8,184.3h5.7v6.8h-5.7v11.9c0,2.5,1.2,3.3,3.4,3.3c0.9,0,2-0.1,2.4-0.2v6.4c-0.7,0.3-2.1,0.7-4.3,0.7
			c-5.6,0-9-3.3-9-8.8v-13.3H864v-6.8h1.4c3,0,4.4-2,4.4-4.5v-4h6.9V184.3z"/>
		<path class="st0" d="M895.4,212.8h-7.7v-41.9h7.7v15.8c1.9-2.2,5-3.1,7.7-3.1c7.2,0,10.6,5,10.6,11.3v17.9H906v-16.6
			c0-3.2-1.6-5.7-5.3-5.7c-3.2,0-5.1,2.4-5.3,5.6V212.8z"/>
		<path class="st0" d="M949.2,198.6c0,8.7-6.4,15.1-14.9,15.1s-14.9-6.4-14.9-15.1c0-8.8,6.4-15.1,14.9-15.1
			S949.2,189.8,949.2,198.6z M941.5,198.6c0-5.4-3.5-8.1-7.2-8.1c-3.8,0-7.2,2.7-7.2,8.1c0,5.3,3.5,8.1,7.2,8.1
			C938,206.7,941.5,204,941.5,198.6z"/>
		<path class="st0" d="M963,212.8h-7.7v-28.5h7.5v3.5c1.7-3,5.1-4.3,8.2-4.3c7.1,0,10.3,5,10.3,11.3v17.9h-7.7v-16.6
			c0-3.2-1.6-5.7-5.3-5.7c-3.4,0-5.3,2.6-5.3,5.9V212.8z"/>
	</g>
	<g>
		<path class="st1" d="M327.3,203.4h-16.7l-3.4,9.4h-8.4l15.7-41h9.3l15.6,41h-8.7L327.3,203.4z M313.3,196.1h11.3l-5.7-15.5
			L313.3,196.1z"/>
		<path class="st1" d="M362.5,203.4c0.2,2.3,1.9,4.3,5.2,4.3c2.5,0,3.8-1.3,3.8-2.8c0-1.3-0.9-2.3-3.1-2.8l-3.8-0.9
			c-5.5-1.2-8-4.5-8-8.5c0-5.1,4.5-9.3,10.6-9.3c8.1,0,10.8,5.1,11.2,8.2l-6.4,1.4c-0.2-1.7-1.4-3.8-4.7-3.8c-2,0-3.6,1.2-3.6,2.8
			c0,1.4,1,2.3,2.6,2.5l4.1,0.9c5.6,1.2,8.4,4.6,8.4,8.7c0,4.6-3.6,9.4-11.1,9.4c-8.6,0-11.5-5.6-11.9-8.8L362.5,203.4z"/>
		<path class="st1" d="M412.6,198.6c0,8.7-6.4,15.1-14.9,15.1c-8.5,0-14.9-6.4-14.9-15.1c0-8.8,6.4-15.1,14.9-15.1
			C406.2,183.5,412.6,189.8,412.6,198.6z M404.9,198.6c0-5.4-3.5-8.1-7.2-8.1c-3.8,0-7.2,2.7-7.2,8.1c0,5.3,3.5,8.1,7.2,8.1
			C401.4,206.7,404.9,204,404.9,198.6z"/>
		<path class="st1" d="M424.2,198.6c0,5.1,3.4,8,7.3,8c3.9,0,5.9-2.6,6.5-4.8l6.8,2.3c-1.3,4.7-5.7,9.6-13.3,9.6
			c-8.4,0-15-6.4-15-15.1c0-8.8,6.5-15.1,14.8-15.1c7.8,0,12.2,4.8,13.4,9.6l-6.9,2.3c-0.7-2.4-2.5-4.8-6.3-4.8
			C427.5,190.6,424.2,193.4,424.2,198.6z"/>
		<path class="st1" d="M454.3,170.2c2.7,0,4.7,2.1,4.7,4.8c0,2.5-2.1,4.7-4.7,4.7c-2.6,0-4.7-2.1-4.7-4.7
			C449.6,172.4,451.7,170.2,454.3,170.2z M450.5,212.8v-28.5h7.7v28.5H450.5z"/>
		<path class="st1" d="M473.2,196.4l7-1c1.6-0.2,2.1-1,2.1-2c0-2-1.6-3.7-4.8-3.7c-3.4,0-5.2,2.1-5.4,4.6l-6.8-1.4
			c0.5-4.5,4.6-9.4,12.2-9.4c9,0,12.4,5.1,12.4,10.8v14c0,1.5,0.2,3.5,0.3,4.5h-7.1c-0.2-0.8-0.3-2.3-0.3-3.4
			c-1.4,2.3-4.2,4.2-8.4,4.2c-6.1,0-9.8-4.1-9.8-8.6C464.7,200,468.5,197.1,473.2,196.4z M482.3,201.3V200l-6.4,1
			c-2,0.3-3.5,1.4-3.5,3.6c0,1.7,1.2,3.3,3.7,3.3C479.3,207.9,482.3,206.3,482.3,201.3z"/>
		<path class="st1" d="M497.6,212.8v-41.9h7.7v41.9H497.6z"/>
		<path class="st1" d="M527.8,212.8v-28.5h7.3v3.5c1.6-2.8,5.2-4.3,8.3-4.3c3.9,0,7,1.7,8.4,4.7c2.3-3.5,5.3-4.7,9-4.7
			c5.3,0,10.3,3.2,10.3,10.8v18.5h-7.5v-16.9c0-3.1-1.5-5.4-5-5.4c-3.3,0-5.3,2.5-5.3,5.6v16.7h-7.6v-16.9c0-3.1-1.6-5.4-5-5.4
			c-3.4,0-5.3,2.5-5.3,5.6v16.7H527.8z"/>
		<path class="st1" d="M604.6,204.6c-1.4,4.9-6,9-13,9c-7.8,0-14.7-5.6-14.7-15.2c0-9.1,6.7-15,14-15c8.8,0,14.1,5.6,14.1,14.8
			c0,1.1-0.1,2.3-0.1,2.4h-20.4c0.2,3.8,3.4,6.5,7.2,6.5c3.6,0,5.6-1.8,6.5-4.3L604.6,204.6z M597.4,195.3c-0.1-2.8-2-5.6-6.4-5.6
			c-4,0-6.2,3-6.4,5.6H597.4z"/>
		<path class="st1" d="M638.2,207.7c0,1.9,0.1,4,0.2,5.1h-7.3c-0.1-0.6-0.3-2-0.3-3.3c-1.3,2.3-4.2,4-8,4c-8.1,0-13.9-6.4-13.9-15
			c0-8.3,5.6-14.9,13.7-14.9c4.9,0,7.2,2,8,3.5v-16.3h7.6V207.7z M623.8,206.6c3.9,0,7-3,7-8.2c0-5.1-3.1-7.9-7-7.9s-7.1,2.9-7.1,8
			S619.7,206.6,623.8,206.6z"/>
		<path class="st1" d="M650.4,170.2c2.7,0,4.7,2.1,4.7,4.8c0,2.5-2.1,4.7-4.7,4.7c-2.6,0-4.7-2.1-4.7-4.7
			C645.6,172.4,647.8,170.2,650.4,170.2z M646.6,212.8v-28.5h7.7v28.5H646.6z"/>
		<path class="st1" d="M669.3,196.4l7-1c1.6-0.2,2.1-1,2.1-2c0-2-1.6-3.7-4.8-3.7c-3.4,0-5.2,2.1-5.4,4.6l-6.8-1.4
			c0.5-4.5,4.6-9.4,12.2-9.4c9,0,12.4,5.1,12.4,10.8v14c0,1.5,0.2,3.5,0.3,4.5h-7.1c-0.2-0.8-0.3-2.3-0.3-3.4
			c-1.4,2.3-4.2,4.2-8.4,4.2c-6.1,0-9.8-4.1-9.8-8.6C660.7,200,664.5,197.1,669.3,196.4z M678.4,201.3V200l-6.4,1
			c-2,0.3-3.5,1.4-3.5,3.6c0,1.7,1.2,3.3,3.7,3.3C675.4,207.9,678.4,206.3,678.4,201.3z"/>
		<path class="st1" d="M715.7,212.8H708v-41.9h7.7v15.8c1.9-2.2,5-3.1,7.7-3.1c7.2,0,10.6,5,10.6,11.3v17.9h-7.7v-16.6
			c0-3.2-1.6-5.7-5.3-5.7c-3.2,0-5.1,2.4-5.3,5.6V212.8z"/>
		<path class="st1" d="M748.5,196.4l7-1c1.6-0.2,2.1-1,2.1-2c0-2-1.6-3.7-4.8-3.7c-3.4,0-5.2,2.1-5.4,4.6l-6.8-1.4
			c0.5-4.5,4.6-9.4,12.2-9.4c9,0,12.4,5.1,12.4,10.8v14c0,1.5,0.2,3.5,0.3,4.5h-7.1c-0.2-0.8-0.3-2.3-0.3-3.4
			c-1.4,2.3-4.2,4.2-8.4,4.2c-6.1,0-9.8-4.1-9.8-8.6C740,200,743.8,197.1,748.5,196.4z M757.7,201.3V200l-6.4,1
			c-2,0.3-3.5,1.4-3.5,3.6c0,1.7,1.2,3.3,3.7,3.3C754.7,207.9,757.7,206.3,757.7,201.3z"/>
		<path class="st1" d="M778.4,198.6c0,5.1,3.4,8,7.3,8c3.9,0,5.9-2.6,6.5-4.8l6.8,2.3c-1.3,4.7-5.7,9.6-13.3,9.6
			c-8.4,0-15-6.4-15-15.1c0-8.8,6.5-15.1,14.8-15.1c7.8,0,12.2,4.8,13.4,9.6l-6.9,2.3c-0.7-2.4-2.5-4.8-6.3-4.8
			C781.7,190.6,778.4,193.4,778.4,198.6z"/>
		<path class="st1" d="M820.9,196.3l11.6,16.5h-9.4l-7.5-10.9l-3.2,3.4v7.5h-7.7v-41.9h7.7v24l9.8-10.6h10.1L820.9,196.3z"/>
		<path class="st1" d="M843.1,196.4l7-1c1.6-0.2,2.1-1,2.1-2c0-2-1.6-3.7-4.8-3.7c-3.4,0-5.2,2.1-5.4,4.6l-6.8-1.4
			c0.5-4.5,4.6-9.4,12.2-9.4c9,0,12.4,5.1,12.4,10.8v14c0,1.5,0.2,3.5,0.3,4.5H853c-0.2-0.8-0.3-2.3-0.3-3.4
			c-1.4,2.3-4.2,4.2-8.4,4.2c-6.1,0-9.8-4.1-9.8-8.6C834.6,200,838.3,197.1,843.1,196.4z M852.2,201.3V200l-6.4,1
			c-2,0.3-3.5,1.4-3.5,3.6c0,1.7,1.2,3.3,3.7,3.3C849.2,207.9,852.2,206.3,852.2,201.3z"/>
		<path class="st1" d="M876.8,184.3h5.7v6.8h-5.7v11.9c0,2.5,1.2,3.3,3.4,3.3c0.9,0,2-0.1,2.4-0.2v6.4c-0.7,0.3-2.1,0.7-4.3,0.7
			c-5.6,0-9-3.3-9-8.8v-13.3H864v-6.8h1.4c3,0,4.4-2,4.4-4.5v-4h6.9V184.3z"/>
		<path class="st1" d="M895.4,212.8h-7.7v-41.9h7.7v15.8c1.9-2.2,5-3.1,7.7-3.1c7.2,0,10.6,5,10.6,11.3v17.9H906v-16.6
			c0-3.2-1.6-5.7-5.3-5.7c-3.2,0-5.1,2.4-5.3,5.6V212.8z"/>
		<path class="st1" d="M949.2,198.6c0,8.7-6.4,15.1-14.9,15.1s-14.9-6.4-14.9-15.1c0-8.8,6.4-15.1,14.9-15.1
			S949.2,189.8,949.2,198.6z M941.5,198.6c0-5.4-3.5-8.1-7.2-8.1c-3.8,0-7.2,2.7-7.2,8.1c0,5.3,3.5,8.1,7.2,8.1
			C938,206.7,941.5,204,941.5,198.6z"/>
		<path class="st1" d="M963,212.8h-7.7v-28.5h7.5v3.5c1.7-3,5.1-4.3,8.2-4.3c7.1,0,10.3,5,10.3,11.3v17.9h-7.7v-16.6
			c0-3.2-1.6-5.7-5.3-5.7c-3.4,0-5.3,2.6-5.3,5.9V212.8z"/>
	</g>
</g>
</svg>
